<svg width="200" height="110" viewBox="0 0 200 110" fill="none" xmlns="http://www.w3.org/2000/svg">
<path d="M17.0311 106.725C13.1488 106.725 9.85242 106.066 7.14209 104.747C4.43176 103.502 2.05106 101.707 0 99.3633L10.4384 88.9248C11.2442 89.8771 12.0866 90.5364 12.9656 90.9027C13.7714 91.3422 14.7237 91.5619 15.8225 91.5619C17.434 91.5619 18.7526 91.0858 19.7781 90.1335C20.8769 89.1812 21.4263 87.7162 21.4263 85.7384V29.3708H38.2377V85.5186C38.2377 89.8405 37.322 93.5764 35.4907 96.7262C33.6594 99.8761 31.1322 102.33 27.9091 104.088C24.7592 105.846 21.1333 106.725 17.0311 106.725ZM29.9968 22.0089C27.3597 22.0089 25.1621 21.1299 23.4041 19.3719C21.7193 17.5406 20.8769 15.343 20.8769 12.7792C20.8769 10.1421 21.7193 7.94452 23.4041 6.18647C25.1621 4.42842 27.3597 3.54939 29.9968 3.54939C32.6339 3.54939 34.7948 4.42842 36.4796 6.18647C38.1644 7.94452 39.0068 10.1421 39.0068 12.7792C39.0068 15.343 38.1644 17.5406 36.4796 19.3719C34.7948 21.1299 32.6339 22.0089 29.9968 22.0089Z" fill="white"/>
<path d="M72.4579 83.8704C67.55 83.8704 63.1549 82.6618 59.2725 80.2445C55.4634 77.8271 52.4234 74.5308 50.1526 70.3554C47.955 66.18 46.8562 61.4186 46.8562 56.0712C46.8562 50.7238 47.955 45.9624 50.1526 41.787C52.4234 37.6117 55.4634 34.3153 59.2725 31.898C63.1549 29.4807 67.55 28.272 72.4579 28.272C76.0472 28.272 79.2703 28.9679 82.1272 30.3597C85.0573 31.7515 87.438 33.6927 89.2693 36.1833C91.1006 38.6006 92.1261 41.3842 92.3459 44.534V67.6084C92.1261 70.7583 91.1006 73.5785 89.2693 76.0691C87.5112 78.4864 85.1671 80.391 82.2371 81.7828C79.307 83.1745 76.0472 83.8704 72.4579 83.8704ZM75.8641 68.7072C79.4535 68.7072 82.3469 67.5352 84.5445 65.1911C86.7421 62.7738 87.8409 59.7338 87.8409 56.0712C87.8409 53.5807 87.3281 51.3831 86.3026 49.4785C85.3503 47.574 83.9585 46.1089 82.1272 45.0834C80.3691 43.9846 78.3181 43.4352 75.974 43.4352C73.6299 43.4352 71.5422 43.9846 69.7109 45.0834C67.9529 46.1089 66.5245 47.574 65.4257 49.4785C64.4001 51.3831 63.8874 53.5807 63.8874 56.0712C63.8874 58.4886 64.4001 60.6495 65.4257 62.554C66.4512 64.4586 67.8796 65.9603 69.7109 67.0591C71.5422 68.1578 73.5933 68.7072 75.8641 68.7072ZM87.1816 82.7717V68.3776L89.7088 55.412L87.1816 42.4463V29.3708H103.663V82.7717H87.1816Z" fill="white"/>
<path d="M146.266 83.8704C142.677 83.8704 139.38 83.1379 136.377 81.6729C133.374 80.1346 130.92 78.1201 129.015 75.6296C127.111 73.0657 126.012 70.2089 125.719 67.0591V44.534C126.012 41.3842 127.111 38.6006 129.015 36.1833C130.92 33.6927 133.374 31.7515 136.377 30.3597C139.38 28.9679 142.677 28.272 146.266 28.272C151.32 28.272 155.789 29.4807 159.671 31.898C163.627 34.3153 166.703 37.6117 168.901 41.787C171.172 45.9624 172.307 50.7238 172.307 56.0712C172.307 61.4186 171.172 66.18 168.901 70.3554C166.703 74.5308 163.627 77.8271 159.671 80.2445C155.789 82.6618 151.32 83.8704 146.266 83.8704ZM143.299 68.7072C145.643 68.7072 147.694 68.1578 149.453 67.0591C151.284 65.9603 152.712 64.4586 153.738 62.554C154.763 60.6495 155.276 58.4886 155.276 56.0712C155.276 53.5807 154.763 51.3831 153.738 49.4785C152.712 47.574 151.284 46.1089 149.453 45.0834C147.694 43.9846 145.643 43.4352 143.299 43.4352C140.955 43.4352 138.868 43.9846 137.036 45.0834C135.205 46.1089 133.777 47.574 132.751 49.4785C131.799 51.3831 131.323 53.5807 131.323 56.0712C131.323 58.5618 131.835 60.7594 132.861 62.6639C133.886 64.5685 135.278 66.0702 137.036 67.1689C138.868 68.1945 140.955 68.7072 143.299 68.7072ZM115.5 82.7717V3H132.312V42.4463L129.565 55.412L132.092 68.3776V82.7717H115.5Z" fill="white"/>
<path d="M190.001 83.9803C187.144 83.9803 184.764 82.9914 182.859 81.0136C180.954 79.0358 180.002 76.6551 180.002 73.8715C180.002 70.9414 180.954 68.5241 182.859 66.6195C184.764 64.6417 187.144 63.6528 190.001 63.6528C192.931 63.6528 195.312 64.6417 197.143 66.6195C199.048 68.5241 200 70.9414 200 73.8715C200 76.6551 199.048 79.0358 197.143 81.0136C195.312 82.9914 192.931 83.9803 190.001 83.9803Z" fill="white"/>
</svg>
